<?xml version="1.0" encoding="utf-8"?>
<!-- Generator: Adobe Illustrator 16.0.4, SVG Export Plug-In . SVG Version: 6.00 Build 0)  -->
<!DOCTYPE svg PUBLIC "-//W3C//DTD SVG 1.1//EN" "http://www.w3.org/Graphics/SVG/1.1/DTD/svg11.dtd">
<svg version="1.1" id="Layer_1" xmlns="http://www.w3.org/2000/svg" xmlns:xlink="http://www.w3.org/1999/xlink" x="0px" y="0px"
	 width="32px" height="32px" viewBox="0 0 32 32" enable-background="new 0 0 32 32" xml:space="preserve">
<linearGradient id="SVGID_1_" gradientUnits="userSpaceOnUse" x1="16" y1="30" x2="16" y2="2.0005">
	<stop  offset="0" style="stop-color:#33922E"/>
	<stop  offset="1" style="stop-color:#3AAA35"/>
</linearGradient>
<polygon fill="url(#SVGID_1_)" points="26,30 6,30 6,9 13,2 26,2 "/>
<polygon fill="#226B20" points="6,9 13,2 13,9 "/>
<path fill="#FFFFFF" d="M9,13v1v12h14V13H9z M18,14v2h-4v-2H18L18,14z M14,19v-2h4v2H14L14,19z M18,20v2h-4v-2H18L18,20z M10,14h3v2
	h-3V14L10,14z M10,17h3v2h-3V17L10,17z M10,20h3v2h-3V20L10,20z M10,25v-2h3v2H10L10,25z M14,25v-2h4v2H14L14,25z M22,25h-3v-2h3V25
	L22,25z M22,22h-3v-2h3V22L22,22z M22,19h-3v-2h3V19L22,19z M22,16h-3v-2h3V16L22,16z"/>
</svg>
